<svg width="1216" height="273" viewBox="0 0 1216 273" fill="none" xmlns="http://www.w3.org/2000/svg">
<path fill-rule="evenodd" clip-rule="evenodd" d="M79.0099 135.95V187.346C85.2561 191.82 89.3228 199.135 89.3228 207.393C89.3228 221.018 78.2813 232.068 64.6614 232.068C51.0415 232.068 40 221.018 40 207.393C40 199.135 44.0703 191.818 50.316 187.343L50.3133 135.95V84.722C44.069 80.2446 40.0004 72.9236 40.0004 64.6524C40.0004 51.05 51.0415 40 64.6618 40C78.2822 40 89.3232 51.0496 89.3232 64.6524C89.3232 69.0546 88.1695 73.1875 86.1495 76.7656L184.232 174.848V104.264V84.722C177.988 80.2446 173.919 72.924 173.919 64.6528C173.919 51.05 184.96 40.0009 198.58 40.0009C212.2 40.0009 223.242 51.05 223.242 64.6528C223.242 72.9236 219.173 80.2446 212.929 84.722V104.264V195.138H359C359.552 195.138 360 195.585 360 196.138V222.835C360 223.387 359.552 223.835 359 223.835H212.929H192.639L79.0099 110.205V135.95ZM198.579 55.6436C203.56 55.6436 207.598 59.6846 207.598 64.6587C207.598 69.6413 203.56 73.6823 198.579 73.6823C193.598 73.6823 189.561 69.6413 189.561 64.6587C189.561 59.6846 193.598 55.6436 198.579 55.6436ZM74.147 87.4328L74.3402 87.3513C74.4843 87.2896 74.628 87.227 74.7707 87.1631L74.9477 87.0816L74.147 87.4328ZM64.6614 55.6427C69.6422 55.6427 73.6801 59.6837 73.6801 64.6578C73.6801 69.6404 69.6422 73.6814 64.6614 73.6814C59.6806 73.6814 55.6427 69.6404 55.6427 64.6578C55.6427 59.6837 59.6806 55.6427 64.6614 55.6427ZM64.6609 198.383C69.6418 198.383 73.6796 202.424 73.6796 207.398C73.6796 212.381 69.6418 216.422 64.6609 216.422C59.6801 216.422 55.6422 212.381 55.6422 207.398C55.6422 202.424 59.6801 198.383 64.6609 198.383ZM360 155.873C360 156.426 359.552 156.873 359 156.873H259.973C259.421 156.873 258.973 156.426 258.973 155.873V129.176C258.973 128.624 259.421 128.176 259.973 128.176H359C359.552 128.176 360 128.624 360 129.176V155.873ZM360 88.914C360 89.4663 359.552 89.914 359 89.914H259.973C259.421 89.914 258.973 89.4663 258.973 88.914V62.217C258.973 61.6647 259.421 61.217 259.973 61.217H359C359.552 61.217 360 61.6647 360 62.217V88.914Z" fill="#F96649"/>
<path d="M426.02 135.8C426.02 123.989 428.657 113.44 433.932 104.152C439.321 94.7493 446.603 87.468 455.776 82.308C465.064 77.0333 475.441 74.396 486.908 74.396C500.324 74.396 512.077 77.836 522.168 84.716C532.259 91.596 539.311 101.113 543.324 113.268H515.632C512.88 107.535 508.981 103.235 503.936 100.368C499.005 97.5013 493.272 96.068 486.736 96.068C479.741 96.068 473.492 97.7307 467.988 101.056C462.599 104.267 458.356 108.853 455.26 114.816C452.279 120.779 450.788 127.773 450.788 135.8C450.788 143.712 452.279 150.707 455.26 156.784C458.356 162.747 462.599 167.391 467.988 170.716C473.492 173.927 479.741 175.532 486.736 175.532C493.272 175.532 499.005 174.099 503.936 171.232C508.981 168.251 512.88 163.893 515.632 158.16H543.324C539.311 170.429 532.259 180.004 522.168 186.884C512.192 193.649 500.439 197.032 486.908 197.032C475.441 197.032 465.064 194.452 455.776 189.292C446.603 184.017 439.321 176.736 433.932 167.448C428.657 158.16 426.02 147.611 426.02 135.8ZM606.353 197.548C597.18 197.548 588.924 195.541 581.585 191.528C574.247 187.4 568.456 181.609 564.213 174.156C560.085 166.703 558.021 158.103 558.021 148.356C558.021 138.609 560.143 130.009 564.385 122.556C568.743 115.103 574.648 109.369 582.101 105.356C589.555 101.228 597.868 99.164 607.041 99.164C616.215 99.164 624.528 101.228 631.981 105.356C639.435 109.369 645.283 115.103 649.525 122.556C653.883 130.009 656.061 138.609 656.061 148.356C656.061 158.103 653.825 166.703 649.353 174.156C644.996 181.609 639.033 187.4 631.465 191.528C624.012 195.541 615.641 197.548 606.353 197.548ZM606.353 176.564C610.711 176.564 614.781 175.532 618.565 173.468C622.464 171.289 625.56 168.079 627.853 163.836C630.147 159.593 631.293 154.433 631.293 148.356C631.293 139.297 628.885 132.36 624.069 127.544C619.368 122.613 613.577 120.148 606.697 120.148C599.817 120.148 594.027 122.613 589.325 127.544C584.739 132.36 582.445 139.297 582.445 148.356C582.445 157.415 584.681 164.409 589.153 169.34C593.74 174.156 599.473 176.564 606.353 176.564ZM726.679 99.336C738.031 99.336 747.204 102.948 754.199 110.172C761.194 117.281 764.691 127.257 764.691 140.1V196H740.611V143.368C740.611 135.8 738.719 130.009 734.935 125.996C731.151 121.868 725.991 119.804 719.455 119.804C712.804 119.804 707.53 121.868 703.631 125.996C699.847 130.009 697.955 135.8 697.955 143.368V196H673.875V100.712H697.955V112.58C701.166 108.452 705.236 105.241 710.167 102.948C715.212 100.54 720.716 99.336 726.679 99.336ZM840.544 99.336C851.896 99.336 861.069 102.948 868.064 110.172C875.059 117.281 878.556 127.257 878.556 140.1V196H854.476V143.368C854.476 135.8 852.584 130.009 848.8 125.996C845.016 121.868 839.856 119.804 833.32 119.804C826.669 119.804 821.395 121.868 817.496 125.996C813.712 130.009 811.82 135.8 811.82 143.368V196H787.74V100.712H811.82V112.58C815.031 108.452 819.101 105.241 824.032 102.948C829.077 100.54 834.581 99.336 840.544 99.336ZM990.185 146.292C990.185 149.732 989.955 152.828 989.497 155.58H919.837C920.41 162.46 922.818 167.849 927.061 171.748C931.303 175.647 936.521 177.596 942.713 177.596C951.657 177.596 958.021 173.755 961.805 166.072H987.777C985.025 175.245 979.75 182.813 971.953 188.776C964.155 194.624 954.581 197.548 943.229 197.548C934.055 197.548 925.799 195.541 918.461 191.528C911.237 187.4 905.561 181.609 901.433 174.156C897.419 166.703 895.413 158.103 895.413 148.356C895.413 138.495 897.419 129.837 901.433 122.384C905.446 114.931 911.065 109.197 918.289 105.184C925.513 101.171 933.826 99.164 943.229 99.164C952.287 99.164 960.371 101.113 967.481 105.012C974.705 108.911 980.266 114.472 984.165 121.696C988.178 128.805 990.185 137.004 990.185 146.292ZM965.245 139.412C965.13 133.22 962.894 128.289 958.537 124.62C954.179 120.836 948.847 118.944 942.541 118.944C936.578 118.944 931.533 120.779 927.405 124.448C923.391 128.003 920.926 132.991 920.009 139.412H965.245ZM1001.72 148.356C1001.72 138.495 1003.73 129.895 1007.74 122.556C1011.75 115.103 1017.31 109.369 1024.42 105.356C1031.53 101.228 1039.67 99.164 1048.85 99.164C1060.66 99.164 1070.4 102.145 1078.09 108.108C1085.88 113.956 1091.1 122.212 1093.74 132.876H1067.77C1066.39 128.748 1064.04 125.537 1060.71 123.244C1057.5 120.836 1053.49 119.632 1048.67 119.632C1041.79 119.632 1036.35 122.155 1032.33 127.2C1028.32 132.131 1026.31 139.183 1026.31 148.356C1026.31 157.415 1028.32 164.467 1032.33 169.512C1036.35 174.443 1041.79 176.908 1048.67 176.908C1058.42 176.908 1064.79 172.551 1067.77 163.836H1093.74C1091.1 174.156 1085.88 182.355 1078.09 188.432C1070.29 194.509 1060.54 197.548 1048.85 197.548C1039.67 197.548 1031.53 195.541 1024.42 191.528C1017.31 187.4 1011.75 181.667 1007.74 174.328C1003.73 166.875 1001.72 158.217 1001.72 148.356ZM1139.57 120.492V166.588C1139.57 169.799 1140.31 172.149 1141.8 173.64C1143.41 175.016 1146.04 175.704 1149.71 175.704H1160.89V196H1145.76C1125.46 196 1115.31 186.139 1115.31 166.416V120.492H1103.96V100.712H1115.31V77.148H1139.57V100.712H1160.89V120.492H1139.57Z" fill="#F96649"/>
</svg>
